<svg version="1.1" viewBox="0.0 0.0 192.0 192.0" fill="none" stroke="none" stroke-linecap="square" stroke-miterlimit="10" xmlns:xlink="http://www.w3.org/1999/xlink" xmlns="http://www.w3.org/2000/svg"><clipPath id="p.0"><path d="m0 0l192.0 0l0 192.0l-192.0 0l0 -192.0z" clip-rule="nonzero"/></clipPath><g clip-path="url(#p.0)"><path fill="#000000" fill-opacity="0.0" d="m0 0l192.0 0l0 192.0l-192.0 0z" fill-rule="evenodd"/><g filter="url(#shadowFilter-p.1)"><use xlink:href="#p.1" transform="matrix(1.0 0.0 0.0 1.0 0.34202018998113515 0.9396926199044455)"/></g><defs><filter id="shadowFilter-p.1" filterUnits="userSpaceOnUse"><feGaussianBlur in="SourceAlpha" stdDeviation="7.5" result="blur"/><feComponentTransfer in="blur" color-interpolation-filters="sRGB"><feFuncR type="linear" slope="0" intercept="1.0"/><feFuncG type="linear" slope="0" intercept="1.0"/><feFuncB type="linear" slope="0" intercept="1.0"/><feFuncA type="linear" slope="1.0" intercept="0"/></feComponentTransfer></filter></defs><g id="p.1"><defs><radialGradient id="p.2" gradientUnits="userSpaceOnUse" gradientTransform="matrix(10.107633615236988 0.0 0.0 10.107633615236988 0.0 0.0)" spreadMethod="pad" cx="9.497772045801359" cy="9.497772045801359" fx="9.497772045801359" fy="9.497772045801359" r="10.107633590698242"><stop offset="0.0" stop-color="#8c8c8c"/><stop offset="1.0" stop-color="#404040"/></radialGradient></defs><path fill="url(#p.2)" d="m33.401573 15.259843l125.196846 0l0 161.48032l-125.196846 0z" fill-rule="evenodd"/><path stroke="#ffffff" stroke-width="1.0" stroke-linejoin="round" stroke-linecap="butt" d="m33.401573 15.259843l125.196846 0l0 161.48032l-125.196846 0z" fill-rule="evenodd"/></g><defs><radialGradient id="p.3" gradientUnits="userSpaceOnUse" gradientTransform="matrix(7.436661477577597 0.0 0.0 7.436661477577597 0.0 0.0)" spreadMethod="pad" cx="12.909018420355856" cy="6.007338214481546" fx="12.909018420355856" fy="6.007338214481546" r="7.436661243438721"><stop offset="0.0" stop-color="#4d4d4d"/><stop offset="1.0" stop-color="#000000"/></radialGradient></defs><path fill="url(#p.3)" d="m45.11811 23.005249l101.76379 0l0 43.338585l-101.76379 0z" fill-rule="evenodd"/><path stroke="#000000" stroke-width="1.0" stroke-linejoin="round" stroke-linecap="butt" d="m45.11811 23.005249l101.76379 0l0 43.338585l-101.76379 0z" fill-rule="evenodd"/><path fill="#ffffff" d="m70.86743 43.97454l0 0.8125q0.5625 -0.5625 1.015625 -0.78125q0.453125 -0.21875 1.015625 -0.21875q0.609375 0 1.109375 0.265625q0.359375 0.1875 0.640625 0.625q0.296875 0.4375 0.296875 0.90625l0 3.359375l0.453125 0q0.1875 0 0.265625 0.078125q0.078125 0.0625 0.078125 0.1875q0 0.109375 -0.078125 0.1875q-0.078125 0.078125 -0.265625 0.078125l-1.4375 0q-0.1875 0 -0.28125 -0.078125q-0.078125 -0.078125 -0.078125 -0.1875q0 -0.125 0.078125 -0.1875q0.09375 -0.078125 0.28125 -0.078125l0.453125 0l0 -3.265625q0 -0.578125 -0.421875 -0.953125q-0.40625 -0.390625 -1.09375 -0.390625q-0.53125 0 -0.921875 0.21875q-0.390625 0.203125 -1.109375 1.046875l0 3.34375l0.609375 0q0.1875 0 0.265625 0.078125q0.09375 0.0625 0.09375 0.1875q0 0.109375 -0.09375 0.1875q-0.078125 0.078125 -0.265625 0.078125l-1.734375 0q-0.203125 0 -0.28125 -0.078125q-0.078125 -0.078125 -0.078125 -0.1875q0 -0.125 0.078125 -0.1875q0.078125 -0.078125 0.28125 -0.078125l0.59375 0l0 -4.421875l-0.453125 0q-0.1875 0 -0.265625 -0.078125q-0.078125 -0.078125 -0.078125 -0.203125q0 -0.109375 0.078125 -0.1875q0.078125 -0.078125 0.265625 -0.078125l0.984375 0zm11.348145 5.5l0 -0.78125q-1.078125 0.984375 -2.359375 0.984375q-0.78125 0 -1.1875 -0.421875q-0.515625 -0.5625 -0.515625 -1.296875l0 -3.4375l-0.71875 0q-0.1875 0 -0.28125 -0.078125q-0.078125 -0.078125 -0.078125 -0.203125q0 -0.109375 0.078125 -0.1875q0.09375 -0.078125 0.28125 -0.078125l1.25 0l0 3.984375q0 0.515625 0.328125 0.859375q0.328125 0.328125 0.828125 0.328125q1.296875 0 2.375 -1.1875l0 -3.4375l-0.984375 0q-0.1875 0 -0.265625 -0.078125q-0.078125 -0.078125 -0.078125 -0.203125q0 -0.109375 0.078125 -0.1875q0.078125 -0.078125 0.265625 -0.078125l1.53125 0l0 4.96875l0.4375 0q0.203125 0 0.28125 0.078125q0.078125 0.0625 0.078125 0.1875q0 0.109375 -0.078125 0.1875q-0.078125 0.078125 -0.28125 0.078125l-0.984375 0zm3.5512695 -5.5l0 0.546875q0.6875 -0.734375 1.375 -0.734375q0.40625 0 0.71875 0.21875q0.3125 0.21875 0.515625 0.65625q0.359375 -0.4375 0.71875 -0.65625q0.375 -0.21875 0.734375 -0.21875q0.578125 0 0.921875 0.375q0.453125 0.484375 0.453125 1.046875l0 3.734375l0.453125 0q0.1875 0 0.265625 0.078125q0.09375 0.0625 0.09375 0.1875q0 0.109375 -0.09375 0.1875q-0.078125 0.078125 -0.265625 0.078125l-0.984375 0l0 -4.203125q0 -0.40625 -0.25 -0.671875q-0.25 -0.265625 -0.578125 -0.265625q-0.28125 0 -0.609375 0.21875q-0.328125 0.21875 -0.734375 0.859375l0 3.53125l0.4375 0q0.203125 0 0.28125 0.078125q0.078125 0.0625 0.078125 0.1875q0 0.109375 -0.078125 0.1875q-0.078125 0.078125 -0.28125 0.078125l-0.984375 0l0 -4.171875q0 -0.421875 -0.25 -0.6875q-0.25 -0.28125 -0.5625 -0.28125q-0.28125 0 -0.5625 0.171875q-0.390625 0.265625 -0.8125 0.90625l0 3.53125l0.453125 0q0.1875 0 0.265625 0.078125q0.09375 0.0625 0.09375 0.1875q0 0.109375 -0.09375 0.1875q-0.078125 0.078125 -0.265625 0.078125l-1.4375 0q-0.1875 0 -0.265625 -0.078125q-0.078125 -0.078125 -0.078125 -0.1875q0 -0.125 0.078125 -0.1875q0.078125 -0.078125 0.265625 -0.078125l0.453125 0l0 -4.421875l-0.453125 0q-0.1875 0 -0.265625 -0.078125q-0.078125 -0.078125 -0.078125 -0.203125q0 -0.109375 0.078125 -0.1875q0.078125 -0.078125 0.265625 -0.078125l0.984375 0zm8.223145 -2.46875l0 3.53125q0.96875 -1.25 2.328125 -1.25q1.171875 0 2.0 0.84375q0.828125 0.84375 0.828125 2.078125q0 1.25 -0.84375 2.109375q-0.828125 0.859375 -1.984375 0.859375q-1.390625 0 -2.328125 -1.25l0 1.046875l-1.25 0q-0.1875 0 -0.28125 -0.078125q-0.078125 -0.078125 -0.078125 -0.1875q0 -0.125 0.078125 -0.1875q0.09375 -0.078125 0.28125 -0.078125l0.71875 0l0 -6.890625l-0.71875 0q-0.1875 0 -0.28125 -0.078125q-0.078125 -0.078125 -0.078125 -0.203125q0 -0.109375 0.078125 -0.1875q0.09375 -0.078125 0.28125 -0.078125l1.25 0zm4.625 5.234375q0 -1.015625 -0.6875 -1.703125q-0.6875 -0.703125 -1.625 -0.703125q-0.921875 0 -1.625 0.703125q-0.6875 0.6875 -0.6875 1.703125q0 1.0 0.6875 1.703125q0.703125 0.703125 1.625 0.703125q0.9375 0 1.625 -0.703125q0.6875 -0.703125 0.6875 -1.703125zm8.066895 0.109375l-5.421875 0q0.125 1.03125 0.859375 1.671875q0.734375 0.625 1.796875 0.625q0.59375 0 1.25 -0.1875q0.65625 -0.203125 1.0625 -0.53125q0.125 -0.09375 0.21875 -0.09375q0.09375 0 0.171875 0.078125q0.078125 0.078125 0.078125 0.1875q0 0.109375 -0.09375 0.21875q-0.3125 0.3125 -1.09375 0.59375q-0.765625 0.265625 -1.59375 0.265625q-1.375 0 -2.296875 -0.890625q-0.90625 -0.90625 -0.90625 -2.171875q0 -1.171875 0.859375 -2.0q0.859375 -0.828125 2.125 -0.828125q1.3125 0 2.15625 0.859375q0.84375 0.84375 0.828125 2.203125zm-0.53125 -0.53125q-0.15625 -0.890625 -0.84375 -1.4375q-0.671875 -0.546875 -1.609375 -0.546875q-0.921875 0 -1.59375 0.546875q-0.671875 0.53125 -0.84375 1.4375l4.890625 0zm4.8168945 -2.34375l0 1.34375q1.03125 -0.9375 1.546875 -1.203125q0.53125 -0.265625 0.96875 -0.265625q0.46875 0 0.875 0.328125q0.421875 0.3125 0.421875 0.46875q0 0.125 -0.09375 0.203125q-0.078125 0.078125 -0.1875 0.078125q-0.0625 0 -0.109375 -0.015625q-0.046875 -0.03125 -0.171875 -0.140625q-0.21875 -0.234375 -0.390625 -0.3125q-0.15625 -0.078125 -0.3125 -0.078125q-0.359375 0 -0.859375 0.28125q-0.484375 0.28125 -1.6875 1.359375l0 2.921875l2.359375 0q0.203125 0 0.28125 0.078125q0.078125 0.0625 0.078125 0.1875q0 0.109375 -0.078125 0.1875q-0.078125 0.078125 -0.28125 0.078125l-4.1875 0q-0.1875 0 -0.28125 -0.0625q-0.078125 -0.078125 -0.078125 -0.203125q0 -0.109375 0.078125 -0.171875q0.09375 -0.078125 0.28125 -0.078125l1.296875 0l0 -4.4375l-0.984375 0q-0.1875 0 -0.28125 -0.078125q-0.078125 -0.078125 -0.078125 -0.203125q0 -0.109375 0.078125 -0.1875q0.078125 -0.078125 0.28125 -0.078125l1.515625 0zm10.191895 0.359375q0 -0.1875 0.078125 -0.265625q0.078125 -0.09375 0.1875 -0.09375q0.125 0 0.203125 0.09375q0.078125 0.078125 0.078125 0.265625l0 0.921875q0 0.1875 -0.078125 0.28125q-0.078125 0.078125 -0.203125 0.078125q-0.09375 0 -0.171875 -0.0625q-0.078125 -0.078125 -0.09375 -0.25q-0.03125 -0.375 -0.390625 -0.625q-0.515625 -0.34375 -1.375 -0.34375q-0.890625 0 -1.390625 0.359375q-0.375 0.265625 -0.375 0.609375q0 0.375 0.453125 0.625q0.296875 0.1875 1.140625 0.28125q1.125 0.109375 1.546875 0.265625q0.625 0.21875 0.921875 0.625q0.296875 0.390625 0.296875 0.84375q0 0.6875 -0.65625 1.21875q-0.640625 0.515625 -1.90625 0.515625q-1.265625 0 -2.078125 -0.640625q0 0.21875 -0.03125 0.28125q-0.015625 0.0625 -0.09375 0.109375q-0.0625 0.046875 -0.140625 0.046875q-0.109375 0 -0.1875 -0.078125q-0.078125 -0.09375 -0.078125 -0.28125l0 -1.09375q0 -0.1875 0.0625 -0.265625q0.078125 -0.09375 0.203125 -0.09375q0.109375 0 0.1875 0.078125q0.09375 0.078125 0.09375 0.21875q0 0.296875 0.140625 0.484375q0.21875 0.3125 0.703125 0.515625q0.484375 0.1875 1.1875 0.1875q1.046875 0 1.546875 -0.375q0.515625 -0.390625 0.515625 -0.828125q0 -0.5 -0.515625 -0.796875q-0.515625 -0.296875 -1.515625 -0.390625q-0.984375 -0.109375 -1.421875 -0.265625q-0.4375 -0.171875 -0.671875 -0.5q-0.234375 -0.328125 -0.234375 -0.71875q0 -0.671875 0.671875 -1.078125q0.671875 -0.40625 1.59375 -0.40625q1.109375 0 1.796875 0.546875z" fill-rule="nonzero"/><defs><linearGradient id="p.4" gradientUnits="userSpaceOnUse" gradientTransform="matrix(4.259332909133901 0.0 0.0 4.259332909133901 0.0 0.0)" spreadMethod="pad" x1="10.592764453670013" y1="17.552888345493873" x2="10.59274880754378" y2="21.812221254599038"><stop offset="0.0" stop-color="#3177ee"/><stop offset="1.0" stop-color="#113d8a"/></linearGradient></defs><path fill="url(#p.4)" d="m45.11811 92.90551l4.535431 -18.141731l46.33071 0l-4.535431 18.141731z" fill-rule="evenodd"/><path stroke="#1155cc" stroke-width="1.0" stroke-linejoin="round" stroke-linecap="butt" d="m45.11811 92.90551l4.535431 -18.141731l46.33071 0l-4.535431 18.141731z" fill-rule="evenodd"/><defs><linearGradient id="p.5" gradientUnits="userSpaceOnUse" gradientTransform="matrix(4.259322077186581 0.0 0.0 4.259322077186581 0.0 0.0)" spreadMethod="pad" x1="10.592791392291806" y1="22.538776356116504" x2="10.592775746125783" y2="26.798098433274347"><stop offset="0.0" stop-color="#3177ee"/><stop offset="1.0" stop-color="#113d8a"/></linearGradient></defs><path fill="url(#p.5)" d="m45.11811 114.14173l4.535431 -18.141731l20.251968 0l-4.535431 18.141731z" fill-rule="evenodd"/><path stroke="#1155cc" stroke-width="1.0" stroke-linejoin="round" stroke-linecap="butt" d="m45.11811 114.14173l4.535431 -18.141731l20.251968 0l-4.535431 18.141731z" fill-rule="evenodd"/><defs><linearGradient id="p.6" gradientUnits="userSpaceOnUse" gradientTransform="matrix(4.259322077186581 0.0 0.0 4.259322077186581 0.0 0.0)" spreadMethod="pad" x1="10.592791392291806" y1="32.51041977147811" x2="10.592775746125783" y2="36.76974184863595"><stop offset="0.0" stop-color="#3177ee"/><stop offset="1.0" stop-color="#113d8a"/></linearGradient></defs><path fill="url(#p.6)" d="m45.11811 156.61417l4.535431 -18.141724l20.251968 0l-4.535431 18.141724z" fill-rule="evenodd"/><path stroke="#1155cc" stroke-width="1.0" stroke-linejoin="round" stroke-linecap="butt" d="m45.11811 156.61417l4.535431 -18.141724l20.251968 0l-4.535431 18.141724z" fill-rule="evenodd"/><defs><linearGradient id="p.7" gradientUnits="userSpaceOnUse" gradientTransform="matrix(4.259322077186581 0.0 0.0 4.259322077186581 0.0 0.0)" spreadMethod="pad" x1="16.719233045704552" y1="22.538776356116504" x2="16.71921739953853" y2="26.798098433274347"><stop offset="0.0" stop-color="#3177ee"/><stop offset="1.0" stop-color="#113d8a"/></linearGradient></defs><path fill="url(#p.7)" d="m71.2126 114.14173l4.535431 -18.141731l20.251968 0l-4.535431 18.141731z" fill-rule="evenodd"/><path stroke="#1155cc" stroke-width="1.0" stroke-linejoin="round" stroke-linecap="butt" d="m71.2126 114.14173l4.535431 -18.141731l20.251968 0l-4.535431 18.141731z" fill-rule="evenodd"/><defs><linearGradient id="p.8" gradientUnits="userSpaceOnUse" gradientTransform="matrix(4.259332909133901 0.0 0.0 4.259332909133901 0.0 0.0)" spreadMethod="pad" x1="10.596461753653841" y1="27.52450640188062" x2="10.596446107527608" y2="31.78383931098578"><stop offset="0.0" stop-color="#3177ee"/><stop offset="1.0" stop-color="#113d8a"/></linearGradient></defs><path fill="url(#p.8)" d="m45.133858 135.37796l4.5354347 -18.141739l46.330708 0l-4.535431 18.141739z" fill-rule="evenodd"/><path stroke="#1155cc" stroke-width="1.0" stroke-linejoin="round" stroke-linecap="butt" d="m45.133858 135.37796l4.5354347 -18.141739l46.330708 0l-4.535431 18.141739z" fill-rule="evenodd"/><defs><linearGradient id="p.9" gradientUnits="userSpaceOnUse" gradientTransform="matrix(4.259322077186581 0.0 0.0 4.259322077186581 0.0 0.0)" spreadMethod="pad" x1="16.719233045704552" y1="32.51041977147811" x2="16.71921739953853" y2="36.76974184863595"><stop offset="0.0" stop-color="#3177ee"/><stop offset="1.0" stop-color="#113d8a"/></linearGradient></defs><path fill="url(#p.9)" d="m71.2126 156.61417l4.535431 -18.141724l20.251968 0l-4.535431 18.141724z" fill-rule="evenodd"/><path stroke="#1155cc" stroke-width="1.0" stroke-linejoin="round" stroke-linecap="butt" d="m71.2126 156.61417l4.535431 -18.141724l20.251968 0l-4.535431 18.141724z" fill-rule="evenodd"/><defs><linearGradient id="p.10" gradientUnits="userSpaceOnUse" gradientTransform="matrix(4.259321475413218 0.0 0.0 4.259321475413218 0.0 0.0)" spreadMethod="pad" x1="22.84567792684232" y1="17.552958331936225" x2="22.845661077122685" y2="21.812279807316113"><stop offset="0.0" stop-color="#3177ee"/><stop offset="1.0" stop-color="#113d8a"/></linearGradient></defs><path fill="url(#p.10)" d="m97.30708 92.90551l4.5354385 -18.141731l20.251968 0l-4.5354385 18.141731z" fill-rule="evenodd"/><path stroke="#1155cc" stroke-width="1.0" stroke-linejoin="round" stroke-linecap="butt" d="m97.30708 92.90551l4.5354385 -18.141731l20.251968 0l-4.5354385 18.141731z" fill-rule="evenodd"/><defs><linearGradient id="p.11" gradientUnits="userSpaceOnUse" gradientTransform="matrix(4.259322077188878 0.0 0.0 4.259322077188878 0.0 0.0)" spreadMethod="pad" x1="22.845674699104986" y1="27.52459806378247" x2="22.84565784938773" y2="31.783920140938015"><stop offset="0.0" stop-color="#3177ee"/><stop offset="1.0" stop-color="#113d8a"/></linearGradient></defs><path fill="url(#p.11)" d="m97.30708 135.37796l4.5354385 -18.141739l20.251968 0l-4.5354385 18.141739z" fill-rule="evenodd"/><path stroke="#1155cc" stroke-width="1.0" stroke-linejoin="round" stroke-linecap="butt" d="m97.30708 135.37796l4.5354385 -18.141739l20.251968 0l-4.5354385 18.141739z" fill-rule="evenodd"/><defs><linearGradient id="p.12" gradientUnits="userSpaceOnUse" gradientTransform="matrix(4.259322077188878 0.0 0.0 4.259322077188878 0.0 0.0)" spreadMethod="pad" x1="28.97211635251443" y1="17.552954648426237" x2="28.972099502797175" y2="21.812276725581786"><stop offset="0.0" stop-color="#3177ee"/><stop offset="1.0" stop-color="#113d8a"/></linearGradient></defs><path fill="url(#p.12)" d="m123.40157 92.90551l4.535431 -18.141731l20.251976 0l-4.535431 18.141731z" fill-rule="evenodd"/><path stroke="#1155cc" stroke-width="1.0" stroke-linejoin="round" stroke-linecap="butt" d="m123.40157 92.90551l4.535431 -18.141731l20.251976 0l-4.535431 18.141731z" fill-rule="evenodd"/><defs><linearGradient id="p.13" gradientUnits="userSpaceOnUse" gradientTransform="matrix(4.259332909131776 0.0 0.0 4.259332909131776 0.0 0.0)" spreadMethod="pad" x1="22.845616600090633" y1="22.53869737369849" x2="22.845602157512573" y2="26.79803028280578"><stop offset="0.0" stop-color="#3177ee"/><stop offset="1.0" stop-color="#113d8a"/></linearGradient></defs><path fill="url(#p.13)" d="m97.30708 114.14173l4.5354385 -18.141731l46.33071 0l-4.535431 18.141731z" fill-rule="evenodd"/><path stroke="#1155cc" stroke-width="1.0" stroke-linejoin="round" stroke-linecap="butt" d="m97.30708 114.14173l4.5354385 -18.141731l46.33071 0l-4.535431 18.141731z" fill-rule="evenodd"/><defs><linearGradient id="p.14" gradientUnits="userSpaceOnUse" gradientTransform="matrix(4.259320873637475 0.0 0.0 4.259320873637475 0.0 0.0)" spreadMethod="pad" x1="28.97212453913204" y1="27.524608248479645" x2="28.972107689410024" y2="31.78392912208379"><stop offset="0.0" stop-color="#3177ee"/><stop offset="1.0" stop-color="#113d8a"/></linearGradient></defs><path fill="url(#p.14)" d="m123.40157 135.37796l4.535431 -18.141739l20.251976 0l-4.535431 18.141739z" fill-rule="evenodd"/><path stroke="#1155cc" stroke-width="1.0" stroke-linejoin="round" stroke-linecap="butt" d="m123.40157 135.37796l4.535431 -18.141739l20.251976 0l-4.535431 18.141739z" fill-rule="evenodd"/><defs><linearGradient id="p.15" gradientUnits="userSpaceOnUse" gradientTransform="matrix(4.259332909131776 0.0 0.0 4.259332909131776 0.0 0.0)" spreadMethod="pad" x1="22.845616600090633" y1="32.51031543009021" x2="22.845602157512573" y2="36.7696483391975"><stop offset="0.0" stop-color="#3177ee"/><stop offset="1.0" stop-color="#113d8a"/></linearGradient></defs><path fill="url(#p.15)" d="m97.30708 156.61417l4.5354385 -18.141724l46.33071 0l-4.535431 18.141724z" fill-rule="evenodd"/><path stroke="#1155cc" stroke-width="1.0" stroke-linejoin="round" stroke-linecap="butt" d="m97.30708 156.61417l4.5354385 -18.141724l46.33071 0l-4.535431 18.141724z" fill-rule="evenodd"/></g></svg>