<svg version="1.1" viewBox="0.0 0.0 192.0 192.0" fill="none" stroke="none" stroke-linecap="square" stroke-miterlimit="10" xmlns:xlink="http://www.w3.org/1999/xlink" xmlns="http://www.w3.org/2000/svg"><clipPath id="p.0"><path d="m0 0l192.0 0l0 192.0l-192.0 0l0 -192.0z" clip-rule="nonzero"/></clipPath><g clip-path="url(#p.0)"><path fill="#000000" fill-opacity="0.0" d="m0 0l192.0 0l0 192.0l-192.0 0z" fill-rule="evenodd"/><g filter="url(#shadowFilter-p.1)"><use xlink:href="#p.1" transform="matrix(1.0 0.0 0.0 1.0 1.0 0.0)"/></g><defs><filter id="shadowFilter-p.1" filterUnits="userSpaceOnUse"><feGaussianBlur in="SourceAlpha" stdDeviation="7.5" result="blur"/><feComponentTransfer in="blur" color-interpolation-filters="sRGB"><feFuncR type="linear" slope="0" intercept="1.0"/><feFuncG type="linear" slope="0" intercept="1.0"/><feFuncB type="linear" slope="0" intercept="1.0"/><feFuncA type="linear" slope="1.0" intercept="0"/></feComponentTransfer></filter></defs><g id="p.1"><defs><linearGradient id="p.2" gradientUnits="userSpaceOnUse" gradientTransform="matrix(11.266302961106433 0.0 0.0 11.266302961106433 0.0 0.0)" spreadMethod="pad" x1="2.909985379948227" y1="2.601497832513591" x2="2.90994442879399" y2="13.8678007935456"><stop offset="0.0" stop-color="#3177ee"/><stop offset="1.0" stop-color="#113d8a"/></linearGradient></defs><path fill="url(#p.2)" d="m32.78478 29.309711l123.93701 0l0 126.92914l-123.93701 0z" fill-rule="evenodd"/><path stroke="#ffffff" stroke-width="1.0" stroke-linejoin="round" stroke-linecap="butt" d="m32.78478 29.309711l123.93701 0l0 126.92914l-123.93701 0z" fill-rule="evenodd"/><path fill="#ffffff" d="m90.10066 108.62177l0 -16.03125q8.4375 -0.296875 13.09375 -4.125q4.65625 -3.84375 4.65625 -10.28125l0 -1.828125q0 -5.46875 -3.453125 -8.78125q-3.453125 -3.3125 -9.5 -3.3125q-6.234375 0 -9.84375 3.265625q-3.59375 3.265625 -5.03125 8.734375l-5.09375 -1.8125q0.953125 -3.265625 2.640625 -6.046875q1.6875 -2.796875 4.125 -4.812496q2.453125 -2.015625 5.8125 -3.15625q3.359375 -1.15625 7.578125 -1.15625q8.734375 0 13.71875 4.796871q5.0 4.796875 5.0 12.953125q0 4.421875 -1.4375 7.828125q-1.4375 3.40625 -3.984375 5.859375q-2.546875 2.453125 -5.859375 3.890625q-3.3125 1.4375 -7.046875 2.015625l0 12.0l-5.375 0zm2.6875 19.671883q-2.3125 0 -3.421875 -1.1406326q-1.09375 -1.15625 -1.09375 -3.171875l0 -1.0625q0 -2.015625 1.09375 -3.15625q1.109375 -1.15625 3.421875 -1.15625q2.390625 0 3.5 1.15625q1.109375 1.140625 1.109375 3.15625l0 1.0625q0 2.015625 -1.109375 3.171875q-1.109375 1.1406326 -3.5 1.1406326z" fill-rule="nonzero"/></g></g></svg>