<svg version="1.1" viewBox="0.0 0.0 192.0 192.0" fill="none" stroke="none" stroke-linecap="square" stroke-miterlimit="10" xmlns:xlink="http://www.w3.org/1999/xlink" xmlns="http://www.w3.org/2000/svg"><clipPath id="p.0"><path d="m0 0l192.0 0l0 192.0l-192.0 0l0 -192.0z" clip-rule="nonzero"/></clipPath><g clip-path="url(#p.0)"><path fill="#000000" fill-opacity="0.0" d="m0 0l192.0 0l0 192.0l-192.0 0z" fill-rule="evenodd"/><path fill="#000000" fill-opacity="0.498" d="m24.0 24.0l168.0 0l0 168.0l-168.0 0z" fill-rule="evenodd"/><path fill="#7f7f7f" d="m0 0l168.0 0l0 168.0l-168.0 0z" fill-rule="evenodd"/><path fill="#000000" d="m72.0 120.0l24.0 0l0 24.0l-24.0 0z" fill-rule="evenodd"/><path fill="#000000" d="m72.0 24.0l24.0 0l0 24.0l-24.0 0z" fill-rule="evenodd"/><path fill="#000000" d="m48.0 72.0l0 24.0l-24.0 0l0 -24.0z" fill-rule="evenodd"/><path fill="#000000" d="m144.0 72.0l0 24.0l-24.0 0l0 -24.0z" fill-rule="evenodd"/><path fill="#000000" d="m53.642082 116.35072l0 0c-17.047955 -7.056587 -28.542213 -23.2603 -29.567862 -41.682465c-1.02565 -18.422173 8.598871 -35.801662 24.758146 -44.70706c16.159279 -8.9053955 35.992752 -7.7602406 51.01969 2.9457989l-27.852058 39.093002z" fill-rule="evenodd"/><path fill="#000000" d="m54.017185 48.731068l0 0c9.042526 -16.314919 26.71809 -25.913708 45.326046 -24.614496c18.607956 1.2992115 34.778152 13.261118 41.465775 30.674318c6.687622 17.413204 2.6814575 37.123936 -10.273148 50.544895l-34.53586 -33.335785z" fill-rule="evenodd"/><path fill="#000000" d="m129.52182 61.64468l0 0c17.218124 16.800404 19.340515 43.75165 4.96434 63.04008c-14.376175 19.28843 -40.810143 24.955864 -61.830124 13.256386l23.343964 -41.941147z" fill-rule="evenodd"/><path fill="#000000" d="m113.654465 119.851746l0 0c-8.721756 15.231598 -25.061684 24.488205 -42.610146 24.138733c-17.548458 -0.3494568 -33.506905 -10.249237 -41.615345 -25.815994c-8.10844 -15.56675 -7.073782 -34.317947 2.6981163 -48.898087l39.87291 26.723602z" fill-rule="evenodd"/><path fill="#7f7f7f" d="m120.0 48.0l0 72.09449l-72.09449 0l0 -72.09449z" fill-rule="evenodd"/></g></svg>