<svg version="1.1" viewBox="0.0 0.0 192.0 192.0" fill="none" stroke="none" stroke-linecap="square" stroke-miterlimit="10" xmlns:xlink="http://www.w3.org/1999/xlink" xmlns="http://www.w3.org/2000/svg"><clipPath id="p.0"><path d="m0 0l192.0 0l0 192.0l-192.0 0l0 -192.0z" clip-rule="nonzero"/></clipPath><g clip-path="url(#p.0)"><path fill="#000000" fill-opacity="0.0" d="m0 0l192.0 0l0 192.0l-192.0 0z" fill-rule="evenodd"/><path fill="#000000" fill-opacity="0.498" d="m24.0 24.0l168.0 0l0 168.0l-168.0 0z" fill-rule="evenodd"/><path fill="#ff0000" d="m0 0l168.0 0l0 168.0l-168.0 0z" fill-rule="evenodd"/><path fill="#000000" d="m48.0 120.0l24.0 0l0 24.0l-24.0 0z" fill-rule="evenodd"/><path fill="#000000" d="m96.0 24.0l24.0 0l0 24.0l-24.0 0z" fill-rule="evenodd"/><path fill="#000000" d="m72.0 24.0l0 24.0l-24.0 0l0 -24.0z" fill-rule="evenodd"/><path fill="#000000" d="m120.0 120.0l0 24.0l-24.0 0l0 -24.0z" fill-rule="evenodd"/><path fill="#000000" d="m48.0 48.0l0 24.0l-24.0 0l0 -24.0z" fill-rule="evenodd"/><path fill="#000000" d="m144.0 48.0l0 24.0l-24.0 0l0 -24.0z" fill-rule="evenodd"/><path fill="#000000" d="m144.0 96.0l0 24.0l-24.0 0l0 -24.0z" fill-rule="evenodd"/><path fill="#000000" d="m48.0 96.0l0 24.0l-24.0 0l0 -24.0z" fill-rule="evenodd"/><path fill="#000000" d="m38.82104 70.17536l0 0c-8.523977 -3.5282974 -14.271107 -11.63015 -14.783932 -20.841232c-0.512825 -9.211086 4.2994366 -17.900831 12.379074 -22.353529c8.079639 -4.4526997 17.996376 -3.8801212 25.509846 1.4728985l-13.926029 19.546501z" fill-rule="evenodd"/><path fill="#000000" d="m99.00859 36.365536l0 0c4.521263 -8.157461 13.359047 -12.956856 22.663025 -12.307251c9.30397 0.6496067 17.389069 6.63056 20.73288 15.337162c3.343811 8.7066 1.3407288 18.561966 -5.136566 25.272446l-17.26793 -16.667892z" fill-rule="evenodd"/><path fill="#000000" d="m136.76091 102.82234l0 0c8.60907 8.4002 9.670258 21.875824 2.4821777 31.520035c-7.188095 9.644211 -20.405075 12.477936 -30.91507 6.628189l11.671982 -20.970566z" fill-rule="evenodd"/><path fill="#000000" d="m68.82723 131.92587l0 0c-4.360878 7.615799 -12.530842 12.244095 -21.305073 12.069366c-8.774227 -0.1747284 -16.753452 -5.1246185 -20.807673 -12.9079895c-4.05422 -7.783386 -3.53689 -17.158981 1.3490582 -24.44905l19.936455 13.361801z" fill-rule="evenodd"/></g></svg>