<svg version="1.1" viewBox="0.0 0.0 192.0 192.0" fill="none" stroke="none" stroke-linecap="square" stroke-miterlimit="10" xmlns:xlink="http://www.w3.org/1999/xlink" xmlns="http://www.w3.org/2000/svg"><clipPath id="p.0"><path d="m0 0l192.0 0l0 192.0l-192.0 0l0 -192.0z" clip-rule="nonzero"/></clipPath><g clip-path="url(#p.0)"><path fill="#000000" fill-opacity="0.0" d="m0 0l192.0 0l0 192.0l-192.0 0z" fill-rule="evenodd"/><path fill="#000000" fill-opacity="0.498" d="m24.0 24.0l168.0 0l0 168.0l-168.0 0z" fill-rule="evenodd"/><path fill="#ff0000" d="m0 0l168.0 0l0 168.0l-168.0 0z" fill-rule="evenodd"/><path fill="#000000" d="m48.0 120.0l24.0 0l0 24.0l-24.0 0z" fill-rule="evenodd"/><path fill="#000000" d="m96.0 24.0l24.0 0l0 24.0l-24.0 0z" fill-rule="evenodd"/><path fill="#000000" d="m72.0 24.0l0 24.0l-24.0 0l0 -24.0z" fill-rule="evenodd"/><path fill="#000000" d="m120.0 120.0l0 24.0l-24.0 0l0 -24.0z" fill-rule="evenodd"/><path fill="#000000" d="m48.0 48.0l0 24.0l-24.0 0l0 -24.0z" fill-rule="evenodd"/><path fill="#000000" d="m144.0 48.0l0 24.0l-24.0 0l0 -24.0z" fill-rule="evenodd"/><path fill="#000000" d="m144.0 96.0l0 24.0l-24.0 0l0 -24.0z" fill-rule="evenodd"/><path fill="#000000" d="m48.0 96.0l0 24.0l-24.0 0l0 -24.0z" fill-rule="evenodd"/><path fill="#000000" d="m62.87489 29.165518l0 0c9.649616 7.62097 11.978497 21.302229 5.393841 31.686663c-6.5846596 10.384438 -19.952606 14.112503 -30.961018 8.634445l10.692287 -21.486626z" fill-rule="evenodd"/><path fill="#000000" d="m134.8292 66.870476l0 0c-8.918762 7.008728 -21.526604 6.8163147 -30.227333 -0.46131134c-8.700729 -7.27763 -11.118263 -19.653015 -5.796036 -29.670029l21.194176 11.260864z" fill-rule="evenodd"/><path fill="#000000" d="m102.9874 136.92842l0 0c-8.944626 -8.989113 -9.352432 -23.385605 -0.9310074 -32.86664c8.421425 -9.481033 22.76551 -10.7743225 32.746986 -2.9525223l-14.803375 18.89074z" fill-rule="evenodd"/><path fill="#000000" d="m29.577839 104.61742l0 0c5.517109 -6.6072845 14.150162 -9.753937 22.624973 -8.246559c8.474812 1.5073776 15.493347 7.437912 18.393738 15.542374c2.9003983 8.104462 1.2384186 17.141548 -4.3556137 23.68383l-18.240936 -15.597061z" fill-rule="evenodd"/></g></svg>