<svg version="1.1" viewBox="0.0 0.0 192.0 192.0" fill="none" stroke="none" stroke-linecap="square" stroke-miterlimit="10" xmlns:xlink="http://www.w3.org/1999/xlink" xmlns="http://www.w3.org/2000/svg"><clipPath id="p.0"><path d="m0 0l192.0 0l0 192.0l-192.0 0l0 -192.0z" clip-rule="nonzero"/></clipPath><g clip-path="url(#p.0)"><path fill="#000000" fill-opacity="0.0" d="m0 0l192.0 0l0 192.0l-192.0 0z" fill-rule="evenodd"/><path fill="#000000" fill-opacity="0.498" d="m24.0 24.0l168.0 0l0 168.0l-168.0 0z" fill-rule="evenodd"/><path fill="#ff0000" d="m0 0l168.0 0l0 168.0l-168.0 0z" fill-rule="evenodd"/><path fill="#000000" d="m24.0 120.0l24.0 0l0 24.0l-24.0 0z" fill-rule="evenodd"/><path fill="#000000" d="m48.0 120.0l0 -24.0l-24.0 24.0z" fill-rule="evenodd"/><path fill="#000000" d="m72.0 96.0l0 -24.0l-24.0 24.0z" fill-rule="evenodd"/><path fill="#000000" d="m96.0 72.0l0 -24.0l-24.0 24.0z" fill-rule="evenodd"/><path fill="#000000" d="m120.0 48.0l0 -24.0l-24.0 24.0z" fill-rule="evenodd"/><path fill="#000000" d="m120.0 48.0l0 24.0l24.0 -24.0z" fill-rule="evenodd"/><path fill="#000000" d="m96.0 72.0l0 24.0l24.0 -24.0z" fill-rule="evenodd"/><path fill="#000000" d="m72.0 96.0l0 24.0l24.0 -24.0z" fill-rule="evenodd"/><path fill="#000000" d="m48.0 120.0l0 24.0l24.0 -24.0z" fill-rule="evenodd"/><path fill="#000000" d="m48.0 96.0l24.0 0l0 24.0l-24.0 0z" fill-rule="evenodd"/><path fill="#000000" d="m72.0 72.0l24.0 0l0 24.0l-24.0 0z" fill-rule="evenodd"/><path fill="#000000" d="m96.0 48.0l24.0 0l0 24.0l-24.0 0z" fill-rule="evenodd"/><path fill="#000000" d="m120.0 24.0l24.0 0l0 24.0l-24.0 0z" fill-rule="evenodd"/><path fill="#000000" d="m48.0 24.0l0 24.0l-24.0 0l0 -24.0z" fill-rule="evenodd"/><path fill="#000000" d="m48.0 48.0l24.0 0l-24.0 -24.0z" fill-rule="evenodd"/><path fill="#000000" d="m72.0 72.0l24.0 0l-24.0 -24.0z" fill-rule="evenodd"/><path fill="#000000" d="m96.0 96.0l24.0 0l-24.0 -24.0z" fill-rule="evenodd"/><path fill="#000000" d="m120.0 120.0l24.0 0l-24.0 -24.0z" fill-rule="evenodd"/><path fill="#000000" d="m120.0 120.0l-24.0 0l24.0 24.0z" fill-rule="evenodd"/><path fill="#000000" d="m96.0 96.0l-24.0 0l24.0 24.0z" fill-rule="evenodd"/><path fill="#000000" d="m72.0 72.0l-24.0 0l24.0 24.0z" fill-rule="evenodd"/><path fill="#000000" d="m48.0 48.0l-24.0 0l24.0 24.0z" fill-rule="evenodd"/><path fill="#000000" d="m72.0 48.0l0 24.0l-24.0 0l0 -24.0z" fill-rule="evenodd"/><path fill="#000000" d="m120.0 96.0l0 24.0l-24.0 0l0 -24.0z" fill-rule="evenodd"/><path fill="#000000" d="m144.0 120.0l0 24.0l-24.0 0l0 -24.0z" fill-rule="evenodd"/></g></svg>