<svg version="1.1" width="192" height="192" viewBox="0.0 0.0 192.0 192.0" fill="none" stroke="none" stroke-linecap="square" stroke-miterlimit="10" xmlns:xlink="http://www.w3.org/1999/xlink" xmlns="http://www.w3.org/2000/svg"><clipPath id="p.0"><path d="m0 0l192.0 0l0 192.0l-192.0 0l0 -192.0z" clip-rule="nonzero"/></clipPath><g clip-path="url(#p.0)"><path fill="#000000" fill-opacity="0.0" d="m0 0l192.0 0l0 192.0l-192.0 0z" fill-rule="evenodd"/><g filter="url(#shadowFilter-p.1)"><use xlink:href="#p.1" transform="matrix(1.0 0.0 0.0 1.0 0.0 1.0)"/></g><defs><filter id="shadowFilter-p.1" filterUnits="userSpaceOnUse"><feGaussianBlur in="SourceAlpha" stdDeviation="15.0" result="blur"/><feComponentTransfer in="blur" color-interpolation-filters="sRGB"><feFuncR type="linear" slope="0" intercept="0.0"/><feFuncG type="linear" slope="0" intercept="0.0"/><feFuncB type="linear" slope="0" intercept="1.0"/><feFuncA type="linear" slope="0.65" intercept="0"/></feComponentTransfer></filter></defs><g id="p.1"><defs><radialGradient id="p.2" gradientUnits="userSpaceOnUse" gradientTransform="matrix(7.687755061065422 0.0 0.0 7.687755061065422 0.0 0.0)" spreadMethod="pad" cx="12.487329092209299" cy="8.372116142760127" fx="12.487329092209299" fy="8.372116142760127" r="7.687755107879639"><stop offset="0.0" stop-color="#3177ee"/><stop offset="1.0" stop-color="#113d8a"/></radialGradient></defs><path fill="url(#p.2)" d="m44.839767 47.71735l102.320465 0c1.4715271 0 2.8827972 0.5845642 3.9233246 1.6250954c1.0405426 1.0405312 1.6251068 2.4517975 1.6251068 3.9233322l0 27.741486c0 5.187988E-4 -4.272461E-4 9.460449E-4 -9.460449E-4 9.460449E-4l-113.41638 -9.460449E-4l0 0c-5.226135E-4 0 -9.460449E-4 -4.196167E-4 -9.460449E-4 -9.460449E-4l9.460449E-4 -27.74054l0 0c0 -3.064312 2.4841156 -5.5484276 5.5484276 -5.5484276z" fill-rule="evenodd"/></g><g filter="url(#shadowFilter-p.3)"><use xlink:href="#p.3" transform="matrix(1.0 0.0 0.0 1.0 0.0 1.0)"/></g><defs><filter id="shadowFilter-p.3" filterUnits="userSpaceOnUse"><feGaussianBlur in="SourceAlpha" stdDeviation="9.5" result="blur"/><feComponentTransfer in="blur" color-interpolation-filters="sRGB"><feFuncR type="linear" slope="0" intercept="1.0"/><feFuncG type="linear" slope="0" intercept="0.8509804"/><feFuncB type="linear" slope="0" intercept="0.4"/><feFuncA type="linear" slope="1.0" intercept="0"/></feComponentTransfer></filter></defs><g id="p.3"><path fill="#ffd966" d="m39.307087 81.00787l113.41733 0l0 76.7874l-113.41733 0z" fill-rule="evenodd"/></g><path fill="#000000" fill-opacity="0.0" d="m39.671917 94.23415l113.41731 0.3863449" fill-rule="evenodd"/><path stroke="#000000" stroke-width="1.0" stroke-linejoin="round" stroke-linecap="butt" d="m39.671917 94.23415l113.41731 0.3863449" fill-rule="evenodd"/><path fill="#000000" fill-opacity="0.0" d="m39.671917 110.589355l113.41731 0.3863449" fill-rule="evenodd"/><path stroke="#000000" stroke-width="1.0" stroke-linejoin="round" stroke-linecap="butt" d="m39.671917 110.589355l113.41731 0.3863449" fill-rule="evenodd"/><path fill="#000000" fill-opacity="0.0" d="m39.671917 126.94456l113.41731 0.3863449" fill-rule="evenodd"/><path stroke="#000000" stroke-width="1.0" stroke-linejoin="round" stroke-linecap="butt" d="m39.671917 126.94456l113.41731 0.3863449" fill-rule="evenodd"/><path fill="#000000" fill-opacity="0.0" d="m39.671917 143.29976l113.41731 0.38633728" fill-rule="evenodd"/><path stroke="#000000" stroke-width="1.0" stroke-linejoin="round" stroke-linecap="butt" d="m39.671917 143.29976l113.41731 0.38633728" fill-rule="evenodd"/><path fill="#000000" fill-opacity="0.0" d="m32.23622 68.50306l111.52756 0l0 51.716537l-111.52756 0z" fill-rule="evenodd"/><path fill="#000000" d="m43.36122 82.09994l-0.03125 0l0 8.203125l-0.78125 0l0 -9.296875l1.0 0l4.890625 8.203125l0.046875 0l0 -8.203125l0.78125 0l0 9.296875l-1.0 0l-4.90625 -8.203125zm10.889862 8.359375q-0.6875 0 -1.234375 -0.234375q-0.546875 -0.234375 -0.9375 -0.6875q-0.375 -0.46875 -0.59375 -1.140625q-0.21875 -0.671875 -0.21875 -1.5q0 -0.84375 0.21875 -1.5q0.21875 -0.671875 0.59375 -1.125q0.390625 -0.453125 0.9375 -0.703125q0.546875 -0.25 1.234375 -0.25q0.671875 0 1.21875 0.25q0.546875 0.25 0.921875 0.703125q0.390625 0.453125 0.609375 1.125q0.21875 0.65625 0.21875 1.5q0 0.828125 -0.21875 1.5q-0.21875 0.671875 -0.609375 1.140625q-0.375 0.453125 -0.921875 0.6875q-0.546875 0.234375 -1.21875 0.234375zm0 -0.671875q1.0 0 1.578125 -0.625q0.578125 -0.625 0.578125 -1.84375l0 -0.859375q0 -1.1875 -0.578125 -1.8125q-0.578125 -0.640625 -1.578125 -0.640625q-1.0 0 -1.59375 0.625q-0.578125 0.625 -0.578125 1.828125l0 0.859375q0 1.203125 0.578125 1.84375q0.59375 0.625 1.59375 0.625zm6.0648193 0.515625q-0.40625 0 -0.625 -0.21875q-0.203125 -0.234375 -0.203125 -0.625l0 -5.3125l-1.1875 0l0 -0.671875l0.765625 0q0.28125 0 0.375 -0.109375q0.109375 -0.109375 0.109375 -0.40625l0 -1.390625l0.6875 0l0 1.90625l1.546875 0l0 0.671875l-1.546875 0l0 5.484375l1.4375 0l0 0.671875l-1.359375 0zm5.6772003 0.15625q-0.671875 0 -1.234375 -0.234375q-0.546875 -0.234375 -0.9375 -0.6875q-0.390625 -0.46875 -0.609375 -1.140625q-0.203125 -0.671875 -0.203125 -1.5q0 -0.84375 0.203125 -1.5q0.21875 -0.671875 0.609375 -1.125q0.390625 -0.453125 0.9375 -0.703125q0.546875 -0.25 1.234375 -0.25q0.640625 0 1.171875 0.25q0.546875 0.25 0.90625 0.6875q0.375 0.4375 0.578125 1.0625q0.21875 0.609375 0.21875 1.359375l0 0.359375l-5.046875 0l0 0.328125q0 0.53125 0.140625 0.984375q0.15625 0.453125 0.4375 0.78125q0.296875 0.3125 0.703125 0.5q0.421875 0.171875 0.9375 0.171875q1.5 0 2.0625 -1.375l0.5625 0.375q-0.3125 0.75 -1.0 1.203125q-0.6875 0.453125 -1.671875 0.453125zm0 -6.5q-0.5 0 -0.90625 0.1875q-0.390625 0.171875 -0.6875 0.5q-0.28125 0.3125 -0.4375 0.765625q-0.140625 0.4375 -0.140625 0.96875l0 0.0625l4.21875 0l0 -0.09375q0 -0.53125 -0.15625 -0.984375q-0.140625 -0.453125 -0.421875 -0.75q-0.265625 -0.3125 -0.640625 -0.484375q-0.375 -0.171875 -0.828125 -0.171875zm4.799652 -0.484375l0.765625 0l0 1.09375l0.046875 0q0.25 -0.5625 0.765625 -0.90625q0.515625 -0.34375 1.3125 -0.34375q1.3125 0 2.0625 0.9375q0.75 0.921875 0.75 2.640625q0 1.703125 -0.75 2.640625q-0.75 0.921875 -2.0625 0.921875q-0.796875 0 -1.3125 -0.328125q-0.5 -0.34375 -0.765625 -0.921875l-0.046875 0l0 3.765625l-0.765625 0l0 -9.5zm2.703125 6.3125q1.03125 0 1.609375 -0.65625q0.578125 -0.65625 0.578125 -1.765625l0 -0.953125q0 -1.109375 -0.578125 -1.75q-0.578125 -0.65625 -1.609375 -0.65625q-0.390625 0 -0.75 0.109375q-0.34375 0.109375 -0.609375 0.3125q-0.265625 0.203125 -0.421875 0.484375q-0.15625 0.265625 -0.15625 0.609375l0 2.703125q0 0.359375 0.15625 0.65625q0.15625 0.28125 0.421875 0.484375q0.265625 0.203125 0.609375 0.3125q0.359375 0.109375 0.75 0.109375zm9.650314 0.515625q-0.453125 0 -0.65625 -0.21875q-0.1875 -0.234375 -0.21875 -0.625l0 -0.234375l-0.0625 0q-0.234375 0.578125 -0.75 0.90625q-0.515625 0.328125 -1.3125 0.328125q-1.078125 0 -1.671875 -0.515625q-0.578125 -0.53125 -0.578125 -1.5q0 -0.90625 0.640625 -1.4375q0.640625 -0.53125 2.125 -0.53125l1.578125 0l0 -0.796875q0 -1.6875 -1.75 -1.6875q-0.6875 0 -1.140625 0.28125q-0.453125 0.28125 -0.734375 0.8125l-0.46875 -0.390625q0.28125 -0.59375 0.859375 -0.984375q0.578125 -0.390625 1.515625 -0.390625q1.1875 0 1.828125 0.609375q0.640625 0.59375 0.640625 1.671875l0 4.03125l0.921875 0l0 0.671875l-0.765625 0zm-2.90625 -0.5q0.421875 0 0.78125 -0.09375q0.359375 -0.109375 0.625 -0.296875q0.28125 -0.203125 0.4375 -0.46875q0.15625 -0.28125 0.15625 -0.625l0 -1.265625l-1.609375 0q-1.015625 0 -1.484375 0.328125q-0.453125 0.328125 -0.453125 0.890625l0 0.328125q0 0.59375 0.421875 0.90625q0.421875 0.296875 1.125 0.296875zm9.648895 -0.59375l-0.046875 0q-0.265625 0.578125 -0.78125 0.921875q-0.515625 0.328125 -1.296875 0.328125q-1.3125 0 -2.0625 -0.921875q-0.75 -0.9375 -0.75 -2.640625q0 -1.71875 0.75 -2.640625q0.75 -0.9375 2.0625 -0.9375q0.78125 0 1.296875 0.34375q0.53125 0.34375 0.78125 0.90625l0.046875 0l0 -4.125l0.75 0l0 9.859375l-0.75 0l0 -1.09375zm-1.953125 0.578125q0.40625 0 0.75 -0.109375q0.359375 -0.109375 0.625 -0.3125q0.265625 -0.203125 0.421875 -0.484375q0.15625 -0.296875 0.15625 -0.65625l0 -2.703125q0 -0.34375 -0.15625 -0.609375q-0.15625 -0.28125 -0.421875 -0.484375q-0.265625 -0.203125 -0.625 -0.3125q-0.34375 -0.109375 -0.75 -0.109375q-1.03125 0 -1.609375 0.65625q-0.5625 0.640625 -0.5625 1.75l0 0.953125q0 1.109375 0.5625 1.765625q0.578125 0.65625 1.609375 0.65625z" fill-rule="nonzero"/></g></svg>
